Coordinates
version=1
nRows=12
nColumns=24
inDegrees=yes

Units are S.I. units (second, meters, Newtons, ...)
Angles are in degrees.

endheader
time	pelvis_tilt	pelvis_list	pelvis_rotation	pelvis_tx	pelvis_ty	pelvis_tz	hip_flexion_r	hip_adduction_r	hip_rotation_r	knee_angle_r	ankle_angle_r	subtalar_angle_r	mtp_angle_r	hip_flexion_l	hip_adduction_l	hip_rotation_l	knee_angle_l	ankle_angle_l	subtalar_angle_l	mtp_angle_l	lumbar_extension	lumbar_bending	lumbar_rotation
      1.37000000	     23.94031432	     -2.55097205	      4.28300898	     -0.52188469	      0.84514192	     -0.02714615	    -40.49648688	      8.64460184	    -19.12306862	     -5.60812303	     30.08236732	     17.72296964	     32.95552921	     -5.25035773	     -0.73581621	    -14.89434692	     -3.81194212	     18.91309591	     12.21129778	     48.18949961	    -39.57346318	      4.36980762	     -8.11591422
      1.37500000	     24.00933426	     -2.67872378	      4.23207301	     -0.51611985	      0.84468079	     -0.02719250	    -40.70471126	      8.62280841	    -18.89012701	     -6.33828590	     30.15075552	     17.64438794	     33.01813561	     -5.29822346	     -0.84291913	    -14.93549162	     -4.23818607	     18.52628421	     12.12935408	     48.16709930	    -39.59886235	      4.37946288	     -8.13918809
      1.38000000	     24.06881009	     -2.80439742	      4.16075816	     -0.51033817	      0.84426782	     -0.02717092	    -40.85998724	      8.57729621	    -18.61201822	     -7.16845145	     30.21961168	     17.52727402	     33.13479555	     -5.32596264	     -0.96537439	    -14.95789607	     -4.80263262	     18.10429249	     11.95123480	     48.14821536	    -39.61283717	      4.36379489	     -8.15398919
      1.38500000	     24.10403325	     -2.94391832	      4.08344731	     -0.50456550	      0.84387832	     -0.02713745	    -40.93732086	      8.52548762	    -18.28538461	     -8.11345350	     30.29515328	     17.35230434	     33.38806878	     -5.31298953	     -1.11449536	    -14.92739136	     -5.48136037	     17.64609303	     11.60033376	     48.14431402	    -39.60486753	      4.35523191	     -8.20009228
      1.39000000	     24.14877352	     -3.06213585	      4.08392240	     -0.49886460	      0.84354248	     -0.02720389	    -40.98182682	      8.50013522	    -18.04681000	     -9.12406276	     30.16250787	     17.07168917	     34.31861983	     -5.27541597	     -1.25833300	    -14.67428028	     -6.28731904	     17.10782065	     10.92949429	     48.27069449	    -39.61349315	      4.36831089	     -8.26987373
      1.39500000	     24.24304910	     -3.14829750	      3.97426652	     -0.49304752	      0.84334854	     -0.02709875	    -41.02929647	      8.35951816	    -17.76277885	    -10.29887269	     30.26411810	     16.98856004	     34.61420160	     -5.31251398	     -1.38995576	    -14.70055067	     -7.17622056	     16.57127845	     10.63914514	     48.27341235	    -39.66780430	      4.28202533	     -8.29100365
      1.40000000	     24.26361063	     -3.24733479	      3.99432283	     -0.48735983	      0.84310519	     -0.02719873	    -40.92800391	      8.29882776	    -17.61298749	    -11.57728049	     30.17613201	     16.81257448	     35.54778276	     -5.20365231	     -1.54406358	    -14.35361200	     -8.20078367	     16.00053452	      9.84996020	     48.34264413	    -39.65484014	      4.28413735	     -8.36629353
      1.40500000	     24.37376679	     -3.25872452	      3.91817270	     -0.48152491	      0.84306484	     -0.02717488	    -40.88539100	      8.09126443	    -17.47499651	    -12.97656165	     30.01989338	     16.54418168	     37.48133096	     -5.26453236	     -1.60683224	    -14.20715582	     -9.17059835	     15.39886290	      9.19400847	     48.55334708	    -39.72843772	      4.14569307	     -8.47508429
      1.41000000	     24.40279520	     -3.35223277	      3.86875292	     -0.47579766	      0.84297801	     -0.02716807	    -40.65760404	      7.95013589	    -17.29791548	    -14.57677746	     29.94834147	     16.44169339	     37.89801239	     -5.15504287	     -1.78957906	    -14.03422166	    -10.34228130	     14.95318914	      8.74639337	     48.52235040	    -39.72681608	      4.09761455	     -8.48666128
      1.41500000	     24.49111250	     -3.32789433	      3.81940226	     -0.46997722	      0.84302896	     -0.02723663	    -40.45927947	      7.69152089	    -17.28786965	    -16.26009543	     29.70343937	     16.19053242	     39.70152197	     -5.19138214	     -1.82142966	    -13.75238802	    -11.38011964	     14.43864158	      7.97589068	     48.37100584	    -39.78217027	      3.94473525	     -8.62099731
      1.42000000	     24.49068240	     -3.38293622	      3.79187227	     -0.46423138	      0.84299935	     -0.02730091	    -40.07284185	      7.49745444	    -17.22503417	    -18.12804895	     29.48465565	     16.06747595	     40.27773767	     -5.04810148	     -1.97235227	    -13.51413855	    -12.62181169	     14.16442019	      7.53176723	     48.26511570	    -39.75110122	      3.87564608	     -8.67788467
      1.42500000	     24.56722858	     -3.29738890	      3.74875365	     -0.45837725	      0.84314925	     -0.02743009	    -39.74201237	      7.15394593	    -17.33137585	    -20.05826081	     29.06944273	     15.72771428	     42.50984383	     -5.09761543	     -1.93939846	    -13.20261163	    -13.66766146	     13.82458752	      6.85490933	     47.79774234	    -39.79469458	      3.67371295	     -8.83975682
